# xmcd CD database file
#
# Track frame offsets:
#	150
#	12768
#	25212
#	40386
#	55303
#	72518
#	94712
#	111817
#	127200
#	143178
#
# Disc length: 2102 seconds
#
# Revision: 0
# Processed by: cddbd v1.5.1PL0 Copyright (c) Steve Scherf et al.
# Submitted via: CDex 1.51
#
DISCID=8e08340a
DTITLE=Neil Innes - Taking Off
DYEAR=1977
DGENRE=Pop
TTITLE0=Crystal Balls
TTITLE1=Catch Phrase
TTITLE2=God Is Love
TTITLE3=Randy Raquel
TTITLE4=Shangri-La
TTITLE5=Drama On A Saturday Night
TTITLE6=Dreams Shine Through
TTITLE7=Busy Day
TTITLE8=Three Piece Suite
TTITLE9=Vie En Rose
EXTD=YEAR: 1977
EXTT0=
EXTT1=
EXTT2=
EXTT3=
EXTT4=
EXTT5=
EXTT6=
EXTT7=
EXTT8=
EXTT9=
PLAYORDER=
